<svg width="102" height="77" viewBox="0 0 102 77" fill="none" xmlns="http://www.w3.org/2000/svg">
<g filter="url(#filter0_d)">
<path d="M31.3729 69C25.7537 69 21.1405 69 18.9195 69C16.8043 69 12.6534 69 8.21152 69C8 68.7897 8.05288 68.6583 8.05288 67.8171C7.94712 66.8708 8 66.1348 8.21152 65.6091C9.69216 65.6091 11.1728 65.1886 12.6534 64.3474C14.2398 63.4011 15.1917 62.7177 15.5089 62.2971C16.8838 59.8789 18.1001 57.4606 19.1576 55.0423L41.5258 3.94285C41.8431 3.31199 42.4248 2.52342 43.2709 1.57714C44.1169 0.525714 44.963 0 45.8091 0C46.6552 0 47.2369 0.262857 47.5541 0.788571L68.9705 53.4651C69.7108 55.1474 70.2396 56.5669 70.5569 57.7234C70.9799 58.7749 71.4029 59.8788 71.826 61.0354C72.3548 62.0868 73.0422 62.928 73.8883 63.5589C74.7344 64.0846 75.5805 64.5051 76.4265 64.8206C77.5899 65.2411 100.265 64.9783 101.64 64.9783C101.852 65.504 101.957 66.24 101.957 67.1863C102.063 68.1326 101.957 69 101.799 68.9211C96.9999 69 68.6894 69 64.7763 69C60.8632 69 55.7834 69 50.251 69C50.0395 68.6846 49.9337 67.9486 49.9337 66.792C49.9337 65.6354 50.3568 65.4514 50.5683 65.4514C53.2123 65.4514 55.2746 64.8206 56.7552 63.5589C57.3898 63.1383 57.7071 62.7177 57.7071 62.2971C57.7071 61.2457 56.6495 58.3543 54.5343 53.6229L51.3615 46.0526C51.0442 45.7371 50.8856 45.5794 50.8856 45.5794H29.7865C29.575 45.5794 29.3106 45.7371 28.9933 46.0526C28.4645 47.104 27.8828 48.4708 27.2483 50.1531C26.6137 51.7303 25.9792 53.2549 25.3446 54.7269C23.7582 58.1966 22.965 60.4571 22.965 61.5086C22.965 62.4549 23.3352 63.1909 24.0755 63.7166C24.8158 64.1371 25.6619 64.5051 26.6137 64.8206C28.3059 65.2411 29.7865 65.4514 31.0556 65.4514C31.3729 65.872 31.4787 66.608 31.3729 67.6594C31.3729 68.6057 31.5844 68.7897 31.3729 69ZM31.3729 40.0594C31.3729 40.3748 33.2237 40.5326 36.9253 40.5326H44.3813C45.5447 40.5326 46.9725 40.48 48.6646 40.3749L48.8232 40.0594V39.744L40.2567 19.3989L31.3729 39.744V40.0594Z" fill="#E8FBFC"/>
</g>
<defs>
<filter id="filter0_d" x="0" y="0" width="102" height="77" filterUnits="userSpaceOnUse" color-interpolation-filters="sRGB">
<feFlood flood-opacity="0" result="BackgroundImageFix"/>
<feColorMatrix in="SourceAlpha" type="matrix" values="0 0 0 0 0 0 0 0 0 0 0 0 0 0 0 0 0 0 127 0" result="hardAlpha"/>
<feOffset dx="-4" dy="4"/>
<feGaussianBlur stdDeviation="2"/>
<feComposite in2="hardAlpha" operator="out"/>
<feColorMatrix type="matrix" values="0 0 0 0 0 0 0 0 0 0 0 0 0 0 0 0 0 0 0.25 0"/>
<feBlend mode="normal" in2="BackgroundImageFix" result="effect1_dropShadow"/>
<feBlend mode="normal" in="SourceGraphic" in2="effect1_dropShadow" result="shape"/>
</filter>
</defs>
</svg>
